<?xml version="1.0" standalone="no"?>
<!DOCTYPE svg PUBLIC "-//W3C//DTD SVG 20010904//EN"
 "http://www.w3.org/TR/2001/REC-SVG-20010904/DTD/svg10.dtd">
<svg version="1.0" xmlns="http://www.w3.org/2000/svg"
 width="512.000000pt" height="512.000000pt" viewBox="0 0 512.000000 512.000000"
 preserveAspectRatio="xMidYMid meet">

<g transform="translate(0.000000,512.000000) scale(0.100000,-0.100000)"
fill="#000000" stroke="none">
<path d="M2362 5109 c-373 -27 -754 -145 -1087 -338 l-80 -46 110 -5 110 -5
-102 -74 c-57 -41 -103 -79 -103 -84 0 -5 16 -60 36 -123 20 -64 35 -117 33
-119 -2 -2 -49 30 -104 71 -55 40 -102 74 -105 74 -3 0 -52 -34 -110 -75 -57
-41 -105 -73 -107 -71 -2 1 13 49 32 105 l34 102 -57 -50 c-71 -62 -203 -197
-269 -276 -54 -65 -153 -199 -153 -208 0 -3 15 -7 32 -9 l33 -3 -71 -51 c-51
-37 -79 -67 -101 -105 l-30 -53 29 -90 c15 -50 27 -94 26 -98 -2 -5 -28 10
-59 32 l-56 39 -41 -99 -40 -99 36 -111 36 -110 135 0 135 0 -104 -76 c-58
-42 -107 -79 -110 -81 -2 -2 14 -60 37 -128 23 -69 39 -125 36 -125 -3 0 -52
34 -109 76 l-103 75 -65 -45 -64 -46 -6 -63 c-3 -34 -8 -106 -12 -159 l-6 -98
2562 0 2563 0 -7 113 c-12 190 -39 377 -77 520 l-10 37 -1234 0 -1235 0 0 335
0 335 1090 0 1091 0 -52 78 c-121 181 -297 378 -478 535 l-53 47 -799 0 -799
0 0 280 0 280 -42 -1 c-24 -1 -94 -6 -156 -10z m-332 -264 l41 -124 131 -3
130 -3 -106 -77 -105 -77 40 -118 c21 -65 38 -121 37 -125 -2 -3 -46 25 -98
64 -52 38 -100 72 -107 74 -6 3 -57 -29 -114 -70 -56 -42 -104 -74 -105 -73
-2 2 15 59 37 126 22 68 36 127 31 130 -5 3 -52 38 -106 76 l-97 70 133 5 132
5 39 123 c22 67 40 122 42 122 2 0 22 -56 45 -125z m-915 -752 l37 -113 129 0
c71 0 129 -3 129 -7 0 -5 -43 -39 -96 -77 -53 -38 -98 -75 -101 -82 -3 -7 12
-63 32 -124 20 -61 35 -114 32 -116 -3 -3 -51 28 -107 70 l-102 75 -95 -70
c-52 -39 -101 -73 -108 -75 -10 -4 -2 31 25 112 22 65 40 121 40 125 0 4 -48
43 -107 86 l-108 78 136 3 135 3 39 119 c22 66 42 117 46 112 3 -4 23 -58 44
-119z m915 4 l36 -112 132 -3 c73 -1 132 -6 132 -10 0 -4 -47 -40 -104 -81
l-103 -73 38 -121 c21 -67 37 -123 35 -125 -2 -2 -50 30 -107 71 l-102 75
-109 -79 c-124 -90 -119 -96 -61 75 18 55 30 103 26 107 -5 3 -53 40 -108 80
l-100 74 135 3 135 3 38 120 c21 67 42 118 45 114 4 -3 23 -56 42 -118z m-916
-749 l37 -117 132 -3 132 -3 -100 -73 c-55 -41 -101 -78 -103 -83 -2 -4 13
-61 33 -125 20 -64 35 -117 33 -119 -2 -2 -48 30 -103 70 -55 41 -105 72 -112
70 -6 -2 -55 -36 -107 -74 -53 -39 -98 -71 -100 -71 -2 0 11 48 30 108 19 59
36 116 39 127 4 16 -16 35 -101 95 l-106 75 133 3 134 3 39 125 c22 68 43 121
47 117 4 -4 23 -61 43 -125z m916 7 l41 -124 132 -3 132 -3 -107 -78 -107 -77
40 -117 c21 -65 38 -121 36 -126 -1 -4 -48 26 -105 68 -61 45 -108 73 -115 68
-7 -4 -54 -38 -106 -75 -52 -38 -96 -67 -97 -65 -2 2 14 57 36 122 22 65 37
121 35 126 -3 4 -51 41 -106 81 l-101 73 133 5 133 5 40 123 c22 67 41 122 42
122 1 0 21 -56 44 -125z"/>
<path d="M93 1876 c3 -7 15 -45 27 -82 39 -129 110 -299 179 -429 l69 -130
2192 0 2192 0 69 130 c69 130 140 300 179 429 12 37 24 75 27 82 4 12 -367 14
-2467 14 -2100 0 -2471 -2 -2467 -14z"/>
<path d="M980 553 c1 -22 273 -198 422 -274 367 -185 734 -272 1158 -272 424
0 791 87 1158 272 149 76 421 252 422 274 0 4 -711 7 -1580 7 -869 0 -1580 -3
-1580 -7z"/>
</g>
</svg>
