<?xml version="1.0" standalone="no"?>
<!DOCTYPE svg PUBLIC "-//W3C//DTD SVG 20010904//EN"
 "http://www.w3.org/TR/2001/REC-SVG-20010904/DTD/svg10.dtd">
<svg version="1.0" xmlns="http://www.w3.org/2000/svg"
 width="512.000000pt" height="512.000000pt" viewBox="0 0 512.000000 512.000000"
 preserveAspectRatio="xMidYMid meet">

<g transform="translate(0.000000,512.000000) scale(0.100000,-0.100000)"
fill="#000000" stroke="none">
<path d="M2445 5114 c-539 -31 -1045 -216 -1441 -526 -483 -378 -806 -886
-939 -1475 -78 -347 -78 -759 0 -1106 205 -910 877 -1631 1770 -1898 377 -113
814 -134 1215 -58 311 59 648 197 914 374 161 107 265 192 406 334 406 407
648 901 726 1482 22 167 22 482 -1 644 -143 1028 -839 1841 -1824 2130 -248
73 -584 113 -826 99z m215 -1616 c67 -205 135 -415 151 -465 l31 -93 491 -2
492 -3 -390 -284 c-214 -156 -393 -286 -397 -290 -4 -3 60 -213 143 -465 82
-253 147 -461 145 -464 -3 -2 -181 124 -396 281 l-392 285 -137 -98 c-75 -55
-253 -184 -396 -288 -143 -105 -261 -189 -262 -188 -1 1 65 209 147 461 82
253 148 465 146 470 -2 6 -180 138 -396 295 l-392 285 493 5 493 5 150 463
c83 254 151 462 153 462 1 0 56 -168 123 -372z"/>
</g>
</svg>
